<?xml version="1.0" encoding="UTF-8" standalone="no"?>
<svg width="88px" height="100px" viewBox="0 0 88 100" version="1.1" xmlns="http://www.w3.org/2000/svg" xmlns:xlink="http://www.w3.org/1999/xlink" xmlns:sketch="http://www.bohemiancoding.com/sketch/ns">
    <!-- Generator: Sketch 3.4.4 (17249) - http://www.bohemiancoding.com/sketch -->
    <title>Snowflake Copy</title>
    <desc>Created with Sketch.</desc>
    <defs></defs>
    <g id="Page-1" stroke="none" stroke-width="1" fill="none" fill-rule="evenodd" sketch:type="MSPage">
        <g id="Artboard-1" sketch:type="MSArtboardGroup" transform="translate(-221.000000, -20.000000)" fill="#FFFFFF">
            <g id="Snowflake-Copy" sketch:type="MSLayerGroup" transform="translate(221.000000, 20.000000)">
                <g id="Group" sketch:type="MSShapeGroup">
                    <path d="M49.555,50 L49.555,22.229 L60.283,16.093 L60.283,9.384 L54.727,6.131 L49.748,9.008 L49.748,3.258 L43.998,0 L38.252,3.258 L38.252,9.201 L33.274,6.131 L27.529,9.384 L27.529,15.905 L38.252,22.229 L38.252,50 L49.555,50 Z" id="Shape"></path>
                    <path d="M49.555,50 L49.555,77.776 L60.283,83.912 L60.283,90.616 L54.727,93.869 L49.748,90.991 L49.748,96.747 L43.998,100 L38.252,96.747 L38.252,90.804 L33.274,93.869 L27.529,90.616 L27.529,84.1 L38.252,77.776 L38.252,50 L49.555,50 Z" id="Shape"></path>
                    <path d="M46.682,45.021 L22.733,31.227 L22.733,18.777 L16.987,15.524 L11.43,18.777 L11.43,24.522 L6.457,21.65 L0.711,25.096 L0.711,31.613 L5.685,34.48 L0.711,37.357 L0.711,43.874 L6.258,47.128 L16.987,40.996 L41.125,54.979 L46.682,45.021 Z" id="Shape"></path>
                    <path d="M46.682,45.021 L70.814,59.003 L81.543,52.872 L87.293,56.13 L87.293,62.643 L82.309,65.52 L87.293,68.392 L87.293,75.097 L81.543,78.354 L76.371,75.482 L76.371,81.222 L70.814,84.485 L65.262,81.222 L65.068,68.772 L41.125,54.979 L46.682,45.021 Z" id="Shape"></path>
                    <path d="M41.125,45.021 L16.987,59.003 L6.457,52.872 L0.707,56.13 L0.707,62.643 L5.685,65.52 L0.707,68.392 L0.707,75.097 L6.258,78.354 L11.43,75.482 L11.43,81.222 L16.987,84.485 L22.733,81.222 L22.733,68.772 L46.682,54.979 L41.125,45.021 Z" id="Shape"></path>
                    <path d="M41.125,45.021 L65.074,31.227 L65.074,18.777 L70.814,15.524 L76.371,18.777 L76.564,24.522 L81.355,21.65 L87.293,25.096 L87.293,31.613 L82.117,34.48 L87.293,37.357 L87.293,43.874 L81.549,47.128 L70.814,40.996 L46.682,54.979 L41.125,45.021 Z" id="Shape"></path>
                </g>
            </g>
        </g>
    </g>
</svg>
