<?xml version="1.0" encoding="UTF-8" standalone="no"?>
<svg width="93px" height="99px" viewBox="0 0 93 99" version="1.1" xmlns="http://www.w3.org/2000/svg" xmlns:xlink="http://www.w3.org/1999/xlink" xmlns:sketch="http://www.bohemiancoding.com/sketch/ns">
    <!-- Generator: Sketch 3.4.4 (17249) - http://www.bohemiancoding.com/sketch -->
    <title>Shape</title>
    <desc>Created with Sketch.</desc>
    <defs></defs>
    <g id="Page-1" stroke="none" stroke-width="1" fill="none" fill-rule="evenodd" sketch:type="MSPage">
        <g id="Artboard-1" sketch:type="MSArtboardGroup" transform="translate(-738.000000, -490.000000)" fill="#FFFFFF">
            <g id="noun_289836_cc-copy" sketch:type="MSLayerGroup" transform="translate(737.000000, 490.000000)">
                <g id="Group" sketch:type="MSShapeGroup">
                    <path d="M92.772,37.164 C90.291,36.696 83.899,36.697 83.899,36.697 C83.899,36.697 91.721,12.531 91.954,11.714 C92.187,10.897 90.903,10.663 90.903,10.663 C90.903,10.663 86.583,18.952 81.096,35.763 C74.091,51.874 68.606,47.199 68.606,47.199 L68.602,47.199 C63.805,42.456 57.433,39.301 50.338,38.599 C58.058,36.517 63.74,29.47 63.74,21.092 C63.74,11.077 55.621,2.958 45.606,2.958 C42.523,2.958 39.622,3.729 37.08,5.086 C36.747,2.223 34.317,0 31.364,0 C28.183,0 25.605,2.579 25.605,5.759 C25.605,8.567 27.616,10.903 30.275,11.412 C28.503,14.213 27.473,17.531 27.473,21.091 C27.473,29.927 33.794,37.283 42.16,38.894 C35.772,39.991 30.073,43.093 25.721,47.522 C24.165,48.219 19.475,48.857 13.781,35.762 C8.294,18.951 3.974,10.662 3.974,10.662 C3.974,10.662 2.69,10.895 2.923,11.713 C3.156,12.531 10.978,36.696 10.978,36.696 C10.978,36.696 4.586,36.695 2.105,37.163 C0.806,37.408 0.821,38.253 1.288,38.681 C4.674,38.331 8.76,39.615 13.079,41.483 C15.829,46.772 20.737,51.804 21.635,52.702 C18.728,57.349 17.042,62.838 17.042,68.724 C17.043,85.445 30.598,99 47.319,99 C64.04,99 77.595,85.445 77.595,68.724 C77.595,62.9 75.948,57.462 73.098,52.846 L73.099,52.844 C73.099,52.844 78.762,47.32 81.798,41.483 C86.118,39.615 90.204,38.331 93.589,38.681 C94.056,38.253 94.071,37.409 92.772,37.164 L92.772,37.164 Z M54.947,21.559 C53.958,21.559 53.157,20.758 53.157,19.769 C53.157,18.78 53.958,17.979 54.947,17.979 C55.936,17.979 56.737,18.78 56.737,19.769 C56.737,20.758 55.935,21.559 54.947,21.559 L54.947,21.559 Z M30.967,23.916 C30.967,25.066 31.091,26.187 31.322,27.268 C30.319,25.22 29.755,22.918 29.755,20.484 C29.755,11.95 36.674,5.031 45.208,5.031 C51.11,5.031 56.237,8.34 58.84,13.203 C55.912,9.959 51.676,7.92 46.963,7.92 C38.129,7.92 30.967,15.082 30.967,23.916 L30.967,23.916 Z M39.848,23.394 C38.362,23.394 37.157,22.189 37.157,20.703 C37.157,19.217 38.362,18.012 39.848,18.012 C41.334,18.012 42.539,19.217 42.539,20.703 C42.538,22.189 41.334,23.394 39.848,23.394 L39.848,23.394 Z M47.864,57.906 C45.887,57.906 44.284,56.303 44.284,54.326 C44.284,52.349 45.887,50.746 47.864,50.746 C49.841,50.746 51.444,52.349 51.444,54.326 C51.444,56.303 49.842,57.906 47.864,57.906 L47.864,57.906 Z" id="Shape"></path>
                </g>
            </g>
        </g>
    </g>
</svg>